<svg width="100px" height="100px" viewBox="-2.4 -2.4 28.80 28.80" fill="none" xmlns="http://www.w3.org/2000/svg"><g id="SVGRepo_bgCarrier" stroke-width="0"></g><g id="SVGRepo_tracerCarrier" stroke-linecap="round" stroke-linejoin="round" stroke="#CCCCCC" stroke-width="0.048"></g><g id="SVGRepo_iconCarrier"> <path d="M15 19.4001L16.7143 21.0001L21 17.0001M12 12.0001V16.0001M14 14.0001H10M5 9.77753V16.2001C5 17.8802 5 18.7203 5.32698 19.362C5.6146 19.9265 6.07354 20.3855 6.63803 20.6731C7.27976 21.0001 8.11984 21.0001 9.8 21.0001H11M21 12.0001L15.5668 5.96405C14.3311 4.59129 13.7133 3.9049 12.9856 3.65151C12.3466 3.42894 11.651 3.42899 11.0119 3.65165C10.2843 3.90516 9.66661 4.59163 8.43114 5.96458L3 12.0001" stroke="#000000" stroke-width="1.272" stroke-linecap="round" stroke-linejoin="round"></path> </g></svg>